<?xml version="1.0" encoding="UTF-8"?>
<svg id="_Слой_1" data-name="Слой 1" xmlns="http://www.w3.org/2000/svg" viewBox="0 0 483.03 483.03">
  <defs>
    <style>
      .cls-1 {
        fill: none;
        stroke: #45ac34;
        stroke-miterlimit: 10;
        stroke-width: 14px;
      }

      .cls-2 {
        fill: #e9e9e9;
      }

      .cls-3 {
        fill: #fff;
      }

      .cls-4 {
        fill: #4059a0;
      }

      .cls-5 {
        fill: #1d1d1b;
      }

      .cls-6 {
        fill: #45ac34;
      }
    </style>
  </defs>
  <circle class="cls-4" cx="241.51" cy="241.51" r="241.51"/>
  <ellipse class="cls-2" cx="241.51" cy="298.57" rx="182.93" ry="147.49"/>
  <ellipse class="cls-5" cx="240.88" cy="285.2" rx="142.23" ry="85.58"/>
  <ellipse class="cls-3" cx="120.57" cy="212.58" rx="37.5" ry="10.27" transform="translate(-110.18 132.07) rotate(-41.2)"/>
  <path class="cls-6" d="M193.19,307.06c0,.2,0,.41,0,.61,0,23.67,21.36,42.86,47.7,42.86s47.7-19.19,47.7-42.86c0-.2,0-.41,0-.61h-95.38Z"/>
  <path class="cls-1" d="M142.9,262.8c1.06-1.82,11.78-19.53,32.75-21.17,20.84-1.63,33.81,14.03,35.14,15.69"/>
  <path class="cls-1" d="M270.81,255.91c1.4-1.58,15.4-16.83,36.27-14.3,20.75,2.51,30.38,20.41,31.36,22.3"/>
  <rect class="cls-2" x="159.16" y="99.62" width="17.69" height="91.24" transform="translate(-31.87 48.43) rotate(-15)"/>
  <rect class="cls-2" x="309.25" y="99.62" width="17.69" height="91.24" transform="translate(48.43 -77.38) rotate(15)"/>
  <circle class="cls-2" cx="152.33" cy="86.75" r="18.58"/>
  <circle class="cls-3" cx="147.6" cy="82.03" r="8.69"/>
  <circle class="cls-2" cx="332.5" cy="91.48" r="18.58"/>
  <circle class="cls-3" cx="327.77" cy="86.75" r="8.69"/>
</svg>